RobotoSerifMicroCond-Super Italic 06fz.ufo
<glyph name="H" format="2">
  <advance width="718"/>
  <unicode hex="0048"/>
  <anchor x="347" y="741" name="top"/>
  <anchor x="347" y="0" name="bottom"/>
  <outline>
    <contour>
      <point x="194" y="407" type="line"/>
      <point x="173" y="323" type="line"/>
      <point x="523" y="323" type="line"/>
      <point x="544" y="407" type="line"/>
    </contour>
    <contour>
      <point x="-45" y="0" type="line"/>
      <point x="259" y="0" type="line"/>
      <point x="281" y="85" type="line"/>
      <point x="274" y="85" type="line"/>
      <point x="260" y="85"/>
      <point x="247" y="88"/>
      <point x="249" y="95" type="curve" smooth="yes"/>
      <point x="379" y="615" type="line" smooth="yes"/>
      <point x="381" y="622"/>
      <point x="395" y="625"/>
      <point x="409" y="625" type="curve"/>
      <point x="415" y="625" type="line"/>
      <point x="437" y="710" type="line"/>
      <point x="133" y="710" type="line"/>
      <point x="111" y="625" type="line"/>
      <point x="121" y="625" type="line" smooth="yes"/>
      <point x="145" y="625"/>
      <point x="152" y="620"/>
      <point x="144" y="589" type="curve" smooth="yes"/>
      <point x="28" y="121" type="line" smooth="yes"/>
      <point x="21" y="91"/>
      <point x="6" y="85"/>
      <point x="-14" y="85" type="curve" smooth="yes"/>
      <point x="-23" y="85" type="line"/>
    </contour>
    <contour>
      <point x="305" y="0" type="line"/>
      <point x="609" y="0" type="line"/>
      <point x="631" y="85" type="line"/>
      <point x="624" y="85" type="line"/>
      <point x="610" y="85"/>
      <point x="597" y="88"/>
      <point x="599" y="95" type="curve" smooth="yes"/>
      <point x="729" y="615" type="line" smooth="yes"/>
      <point x="731" y="622"/>
      <point x="745" y="625"/>
      <point x="759" y="625" type="curve"/>
      <point x="765" y="625" type="line"/>
      <point x="787" y="710" type="line"/>
      <point x="483" y="710" type="line"/>
      <point x="461" y="625" type="line"/>
      <point x="471" y="625" type="line" smooth="yes"/>
      <point x="495" y="625"/>
      <point x="502" y="620"/>
      <point x="494" y="589" type="curve" smooth="yes"/>
      <point x="378" y="121" type="line" smooth="yes"/>
      <point x="371" y="91"/>
      <point x="356" y="85"/>
      <point x="336" y="85" type="curve" smooth="yes"/>
      <point x="327" y="85" type="line"/>
    </contour>
  </outline>
</glyph>
<glyph name="K" format="2">
  <advance width="761"/>
  <unicode hex="004B"/>
  <anchor x="396" y="741" name="top"/>
  <anchor x="396" y="0" name="bottom"/>
  <outline>
    <contour>
      <point x="-45" y="0" type="line"/>
      <point x="254" y="0" type="line"/>
      <point x="276" y="85" type="line"/>
      <point x="269" y="85" type="line" smooth="yes"/>
      <point x="259" y="85"/>
      <point x="247" y="88"/>
      <point x="249" y="95" type="curve"/>
      <point x="379" y="615" type="line"/>
      <point x="381" y="622"/>
      <point x="390" y="625"/>
      <point x="417" y="625" type="curve" smooth="yes"/>
      <point x="426" y="625" type="line"/>
      <point x="448" y="710" type="line"/>
      <point x="133" y="710" type="line"/>
      <point x="111" y="625" type="line"/>
      <point x="121" y="625" type="line" smooth="yes"/>
      <point x="145" y="625"/>
      <point x="152" y="620"/>
      <point x="144" y="589" type="curve" smooth="yes"/>
      <point x="28" y="121" type="line" smooth="yes"/>
      <point x="21" y="91"/>
      <point x="6" y="85"/>
      <point x="-14" y="85" type="curve" smooth="yes"/>
      <point x="-23" y="85" type="line"/>
    </contour>
    <contour>
      <point x="333" y="0" type="line"/>
      <point x="650" y="0" type="line"/>
      <point x="672" y="85" type="line"/>
      <point x="658" y="85" type="line" smooth="yes"/>
      <point x="642" y="85"/>
      <point x="619" y="86"/>
      <point x="614" y="106" type="curve" smooth="yes"/>
      <point x="526" y="460" type="line"/>
      <point x="426" y="350" type="line"/>
      <point x="666" y="596" type="line" smooth="yes"/>
      <point x="691" y="621"/>
      <point x="713" y="625"/>
      <point x="740" y="625" type="curve" smooth="yes"/>
      <point x="749" y="625" type="line"/>
      <point x="771" y="710" type="line"/>
      <point x="523" y="710" type="line"/>
      <point x="501" y="625" type="line"/>
      <point x="516" y="625" type="line" smooth="yes"/>
      <point x="541" y="625"/>
      <point x="570" y="621"/>
      <point x="569" y="614" type="curve"/>
      <point x="332" y="372" type="line"/>
      <point x="327" y="348" type="line"/>
      <point x="387" y="95" type="line"/>
      <point x="385" y="88"/>
      <point x="379" y="85"/>
      <point x="359" y="85" type="curve" smooth="yes"/>
      <point x="355" y="85" type="line"/>
    </contour>
  </outline>
</glyph>
<glyph name="P" format="2">
  <advance width="668"/>
  <unicode hex="0050"/>
  <outline>
    <contour>
      <point x="315" y="356" type="line"/>
      <point x="382" y="626" type="line"/>
      <point x="403" y="626" type="line" smooth="yes"/>
      <point x="454" y="626"/>
      <point x="470" y="589"/>
      <point x="470" y="541" type="curve" smooth="yes"/>
      <point x="470" y="432"/>
      <point x="419" y="356"/>
      <point x="362" y="356" type="curve" smooth="yes"/>
    </contour>
    <contour>
      <point x="133" y="710" type="line"/>
      <point x="111" y="625" type="line"/>
      <point x="121" y="625" type="line" smooth="yes"/>
      <point x="145" y="625"/>
      <point x="152" y="620"/>
      <point x="144" y="589" type="curve" smooth="yes"/>
      <point x="28" y="121" type="line" smooth="yes"/>
      <point x="21" y="91"/>
      <point x="6" y="85"/>
      <point x="-14" y="85" type="curve" smooth="yes"/>
      <point x="-23" y="85" type="line"/>
      <point x="-45" y="0" type="line"/>
      <point x="279" y="0" type="line"/>
      <point x="301" y="85" type="line"/>
      <point x="288" y="85" type="line" smooth="yes"/>
      <point x="260" y="85"/>
      <point x="247" y="88"/>
      <point x="249" y="95" type="curve"/>
      <point x="292" y="272" type="line"/>
      <point x="390" y="272" type="line" smooth="yes"/>
      <point x="572" y="272"/>
      <point x="687" y="366"/>
      <point x="687" y="521" type="curve" smooth="yes"/>
      <point x="687" y="638"/>
      <point x="601" y="710"/>
      <point x="432" y="710" type="curve" smooth="yes"/>
    </contour>
  </outline>
</glyph>
<glyph name="R" format="2">
  <advance width="706"/>
  <unicode hex="0052"/>
  <anchor x="415.0" y="741" name="top"/>
  <anchor x="415.0" y="0" name="bottom"/>
  <outline>
    <contour>
      <point x="313" y="320" type="line"/>
      <point x="395" y="0" type="line"/>
      <point x="627" y="0" type="line"/>
      <point x="649" y="85" type="line"/>
      <point x="640" y="85" type="line" smooth="yes"/>
      <point x="614" y="85"/>
      <point x="603" y="94"/>
      <point x="588" y="146" type="curve" smooth="yes"/>
      <point x="521" y="375" type="line"/>
    </contour>
    <contour>
      <point x="-45" y="0" type="line"/>
      <point x="268" y="0" type="line"/>
      <point x="290" y="85" type="line"/>
      <point x="281" y="85" type="line" smooth="yes"/>
      <point x="258" y="85"/>
      <point x="248" y="88"/>
      <point x="250" y="95" type="curve"/>
      <point x="297" y="285" type="line"/>
      <point x="422" y="285" type="line"/>
      <point x="434" y="292"/>
      <point x="423" y="314"/>
      <point x="445" y="325" type="curve"/>
      <point x="595" y="329"/>
      <point x="703" y="407"/>
      <point x="703" y="533" type="curve" smooth="yes"/>
      <point x="703" y="651"/>
      <point x="614" y="710"/>
      <point x="470" y="710" type="curve" smooth="yes"/>
      <point x="133" y="710" type="line"/>
      <point x="111" y="625" type="line"/>
      <point x="121" y="625" type="line" smooth="yes"/>
      <point x="141" y="625"/>
      <point x="152" y="619"/>
      <point x="144" y="589" type="curve" smooth="yes"/>
      <point x="28" y="121" type="line" smooth="yes"/>
      <point x="21" y="91"/>
      <point x="4" y="85"/>
      <point x="-14" y="85" type="curve" smooth="yes"/>
      <point x="-23" y="85" type="line"/>
    </contour>
    <contour>
      <point x="391" y="626" type="line" smooth="yes"/>
      <point x="445" y="626"/>
      <point x="471" y="597"/>
      <point x="471" y="539" type="curve" smooth="yes"/>
      <point x="471" y="461"/>
      <point x="426" y="369"/>
      <point x="364" y="369" type="curve" smooth="yes"/>
      <point x="319" y="369" type="line"/>
      <point x="383" y="626" type="line"/>
    </contour>
  </outline>
</glyph>
<glyph name="n" format="2">
  <advance width="660"/>
  <unicode hex="006E"/>
  <anchor x="321" y="569" name="top"/>
  <anchor x="331" y="0" name="bottom"/>
  <outline>
    <contour>
      <point x="-2" y="0" type="line"/>
      <point x="113" y="457" type="line" smooth="yes"/>
      <point x="116" y="470"/>
      <point x="110" y="483"/>
      <point x="95" y="487" type="curve" smooth="yes"/>
      <point x="88" y="489" type="line"/>
      <point x="108" y="569" type="line"/>
      <point x="318" y="569" type="line"/>
      <point x="308" y="416" type="line"/>
      <point x="311" y="392" type="line"/>
      <point x="213" y="0" type="line"/>
    </contour>
    <contour>
      <point x="586" y="251" type="line" smooth="yes"/>
      <point x="564" y="163"/>
      <point x="556" y="133"/>
      <point x="556" y="120" type="curve" smooth="yes"/>
      <point x="556" y="103"/>
      <point x="566" y="96"/>
      <point x="586" y="96" type="curve" smooth="yes"/>
      <point x="591" y="96"/>
      <point x="595" y="96"/>
      <point x="599" y="96" type="curve"/>
      <point x="577" y="0" type="line"/>
      <point x="536" y="0"/>
      <point x="492" y="0"/>
      <point x="451" y="0" type="curve" smooth="yes"/>
      <point x="380" y="0"/>
      <point x="338" y="33"/>
      <point x="338" y="93" type="curve" smooth="yes"/>
      <point x="338" y="120"/>
      <point x="345" y="150"/>
      <point x="370" y="247" type="curve" smooth="yes"/>
      <point x="408" y="396" type="line" smooth="yes"/>
      <point x="411" y="408"/>
      <point x="414" y="429"/>
      <point x="414" y="439" type="curve" smooth="yes"/>
      <point x="414" y="451"/>
      <point x="410" y="459"/>
      <point x="399" y="459" type="curve" smooth="yes"/>
      <point x="371" y="459"/>
      <point x="327" y="398"/>
      <point x="264" y="310" type="curve"/>
      <point x="274" y="396" type="line"/>
      <point x="350" y="509"/>
      <point x="429" y="581"/>
      <point x="537" y="581" type="curve" smooth="yes"/>
      <point x="602" y="581"/>
      <point x="635" y="546"/>
      <point x="635" y="491" type="curve" smooth="yes"/>
      <point x="635" y="460"/>
      <point x="629" y="423"/>
      <point x="622" y="396" type="curve" smooth="yes"/>
    </contour>
  </outline>
</glyph>
<glyph name="at" format="2">
  <advance width="873"/>
  <outline>
    <contour>
      <point x="385" y="-164" type="curve" smooth="yes"/>
      <point x="470.0" y="-164.0"/>
      <point x="552.0" y="-141.0"/>
      <point x="606" y="-120" type="curve"/>
      <point x="589" y="-46" type="line"/>
      <point x="546.0" y="-61.0"/>
      <point x="472.0" y="-86.0"/>
      <point x="389" y="-86" type="curve" smooth="yes"/>
      <point x="216.0" y="-86.0"/>
      <point x="129" y="24"/>
      <point x="129" y="194" type="curve" smooth="yes"/>
      <point x="129.0" y="443.0"/>
      <point x="287" y="609.0"/>
      <point x="495" y="609" type="curve" smooth="yes"/>
      <point x="681" y="609.0"/>
      <point x="756.0" y="514.0"/>
      <point x="756" y="369" type="curve" smooth="yes"/>
      <point x="756.0" y="244.0"/>
      <point x="717.9831932773109" y="128.0"/>
      <point x="640" y="128" type="curve" smooth="yes"/>
      <point x="611.9473684210526" y="128.0"/>
      <point x="599.0" y="142.0"/>
      <point x="599" y="173" type="curve" smooth="yes"/>
      <point x="599" y="189"/>
      <point x="602" y="208"/>
      <point x="615" y="241" type="curve"/>
      <point x="705" y="474" type="line"/>
      <point x="595" y="474" type="line"/>
      <point x="539" y="397" type="line"/>
      <point x="521" y="387" type="line"/>
      <point x="432" y="157" type="line"/>
      <point x="452" y="144" type="line"/>
      <point x="487.1342017817114" y="89.79294582250245"/>
      <point x="531.0064516129032" y="61.0"/>
      <point x="609" y="61" type="curve" smooth="yes"/>
      <point x="758.7822580645161" y="61.0"/>
      <point x="855.0" y="188.0"/>
      <point x="855" y="369" type="curve" smooth="yes"/>
      <point x="855.0" y="557.0"/>
      <point x="745" y="688.0"/>
      <point x="495" y="688" type="curve"/>
      <point x="233" y="688.0"/>
      <point x="27.0" y="480.0"/>
      <point x="27" y="194" type="curve" smooth="yes"/>
      <point x="27" y="-23"/>
      <point x="145" y="-164.0"/>
    </contour>
    <contour>
      <point x="339" y="55" type="curve" smooth="yes"/>
      <point x="402.00657894736844" y="55.0"/>
      <point x="423.22419011680375" y="78.87938572427208"/>
      <point x="496" y="184" type="curve"/>
      <point x="467" y="213" type="line"/>
      <point x="422.577247200299" y="141.92359552047833"/>
      <point x="410" y="115.0"/>
      <point x="385" y="115" type="curve" smooth="yes"/>
      <point x="370" y="115"/>
      <point x="365.0" y="136.0"/>
      <point x="365" y="171" type="curve" smooth="yes"/>
      <point x="365" y="246"/>
      <point x="415" y="421.0"/>
      <point x="473" y="421" type="curve" smooth="yes"/>
      <point x="501" y="421"/>
      <point x="511.0003897231728" y="397.99272516744145"/>
      <point x="514" y="342" type="curve"/>
      <point x="551" y="362" type="line"/>
      <point x="548.0001720297357" y="434.9958139430983"/>
      <point x="522" y="480"/>
      <point x="439" y="480" type="curve" smooth="yes"/>
      <point x="313" y="480.0"/>
      <point x="215.0" y="336.0"/>
      <point x="215" y="193" type="curve" smooth="yes"/>
      <point x="215.0" y="109.0"/>
      <point x="255.37209302325581" y="55.0"/>
    </contour>
  </outline>
</glyph>
<glyph name="currency.proportional" format="2">
  <advance width="577"/>
  <outline>
    <contour>
      <point x="67" y="102" type="line"/>
      <point x="211" y="215" type="line"/>
      <point x="140" y="297" type="line"/>
      <point x="2" y="187" type="line"/>
    </contour>
    <contour>
      <point x="86" y="588" type="line"/>
      <point x="187" y="455" type="line"/>
      <point x="286" y="526" type="line"/>
      <point x="184" y="660" type="line"/>
    </contour>
    <contour>
      <point x="291" y="255" type="curve" smooth="yes"/>
      <point x="234" y="255"/>
      <point x="211" y="287"/>
      <point x="211" y="350" type="curve" smooth="yes"/>
      <point x="211" y="419"/>
      <point x="235" y="492"/>
      <point x="302" y="492" type="curve" smooth="yes"/>
      <point x="359" y="492"/>
      <point x="381" y="460"/>
      <point x="381" y="397" type="curve" smooth="yes"/>
      <point x="381" y="328"/>
      <point x="357" y="255"/>
    </contour>
    <contour>
      <point x="262" y="149" type="curve" smooth="yes"/>
      <point x="368" y="149"/>
      <point x="498" y="269"/>
      <point x="498" y="386" type="curve" smooth="yes"/>
      <point x="498" y="485"/>
      <point x="426" y="598"/>
      <point x="330" y="598" type="curve" smooth="yes"/>
      <point x="223" y="598"/>
      <point x="94" y="478"/>
      <point x="94" y="361" type="curve" smooth="yes"/>
      <point x="94" y="262"/>
      <point x="166" y="149"/>
    </contour>
    <contour>
      <point x="408" y="86" type="line"/>
      <point x="506" y="158" type="line"/>
      <point x="405" y="291" type="line"/>
      <point x="306" y="220" type="line"/>
    </contour>
    <contour>
      <point x="590" y="558" type="line"/>
      <point x="525" y="644" type="line"/>
      <point x="381" y="531" type="line"/>
      <point x="452" y="449" type="line"/>
    </contour>
  </outline>
</glyph>
<glyph name="dollar.altprop" format="2">
  <advance width="605"/>
  <outline>
    <contour>
      <point x="257" y="12" type="curve" smooth="yes"/>
      <point x="428" y="12"/>
      <point x="548" y="85"/>
      <point x="548" y="269" type="curve" smooth="yes"/>
      <point x="548" y="366"/>
      <point x="478" y="398"/>
      <point x="349" y="459" type="curve" smooth="yes"/>
      <point x="281" y="490"/>
      <point x="237" y="506"/>
      <point x="237" y="549" type="curve" smooth="yes"/>
      <point x="237" y="598"/>
      <point x="272" y="620"/>
      <point x="357" y="620" type="curve" smooth="yes"/>
      <point x="460" y="620"/>
      <point x="509" y="594"/>
      <point x="534" y="576" type="curve"/>
      <point x="526" y="592"/>
      <point x="493" y="614"/>
      <point x="460" y="624" type="curve"/>
      <point x="433" y="517" type="line"/>
      <point x="574" y="517" type="line"/>
      <point x="605" y="640" type="line"/>
      <point x="568" y="668"/>
      <point x="476" y="698"/>
      <point x="357" y="698" type="curve" smooth="yes"/>
      <point x="169" y="698"/>
      <point x="85" y="600"/>
      <point x="85" y="473" type="curve" smooth="yes"/>
      <point x="85" y="360"/>
      <point x="151" y="330"/>
      <point x="255" y="281" type="curve" smooth="yes"/>
      <point x="347" y="237"/>
      <point x="392" y="230"/>
      <point x="392" y="175" type="curve" smooth="yes"/>
      <point x="392" y="119"/>
      <point x="359" y="91"/>
      <point x="263" y="91" type="curve" smooth="yes"/>
      <point x="148" y="91"/>
      <point x="92" y="125"/>
      <point x="60" y="154" type="curve"/>
      <point x="60" y="137"/>
      <point x="104" y="92"/>
      <point x="139" y="92" type="curve"/>
      <point x="171" y="219" type="line"/>
      <point x="23" y="219" type="line"/>
      <point x="-10" y="85" type="line"/>
      <point x="37" y="49"/>
      <point x="111" y="12"/>
    </contour>
    <contour>
      <point x="133" y="-120" type="line"/>
      <point x="240" y="-120" type="line"/>
      <point x="284" y="59" type="line"/>
      <point x="177" y="60" type="line"/>
    </contour>
    <contour>
      <point x="433" y="654" type="line"/>
      <point x="466" y="790" type="line"/>
      <point x="359" y="790" type="line"/>
      <point x="324" y="646" type="line"/>
    </contour>
  </outline>
</glyph>
<glyph name="dollar.proportional" format="2">
  <advance width="582"/>
  <outline>
    <contour>
      <point x="253" y="12" type="curve" smooth="yes"/>
      <point x="424" y="12"/>
      <point x="543" y="93"/>
      <point x="543" y="250" type="curve" smooth="yes"/>
      <point x="543" y="357"/>
      <point x="471" y="405"/>
      <point x="344" y="456" type="curve" smooth="yes"/>
      <point x="278" y="483"/>
      <point x="204" y="506"/>
      <point x="204" y="553" type="curve" smooth="yes"/>
      <point x="204" y="601"/>
      <point x="245" y="626"/>
      <point x="352" y="626" type="curve" smooth="yes"/>
      <point x="452" y="626"/>
      <point x="504" y="600"/>
      <point x="529" y="582" type="curve"/>
      <point x="521" y="599"/>
      <point x="502" y="614"/>
      <point x="468" y="624" type="curve"/>
      <point x="441" y="517" type="line"/>
      <point x="569" y="517" type="line"/>
      <point x="600" y="640" type="line"/>
      <point x="563" y="668"/>
      <point x="466" y="698"/>
      <point x="349" y="698" type="curve" smooth="yes"/>
      <point x="164" y="698"/>
      <point x="78" y="601"/>
      <point x="78" y="478" type="curve" smooth="yes"/>
      <point x="78" y="365"/>
      <point x="148" y="328"/>
      <point x="250" y="284" type="curve" smooth="yes"/>
      <point x="336" y="246"/>
      <point x="413" y="233"/>
      <point x="413" y="172" type="curve"/>
      <point x="413" y="111"/>
      <point x="350" y="83"/>
      <point x="260" y="83" type="curve" smooth="yes"/>
      <point x="146" y="83"/>
      <point x="87" y="117"/>
      <point x="55" y="146" type="curve"/>
      <point x="55" y="129"/>
      <point x="91" y="92"/>
      <point x="126" y="92" type="curve"/>
      <point x="158" y="219" type="line"/>
      <point x="18" y="219" type="line"/>
      <point x="-15" y="85" type="line"/>
      <point x="31" y="49"/>
      <point x="110" y="12"/>
    </contour>
    <contour>
      <point x="128" y="-120" type="line"/>
      <point x="235" y="-120" type="line"/>
      <point x="279" y="59" type="line"/>
      <point x="258" y="81" type="line"/>
      <point x="395" y="633" type="line"/>
      <point x="428" y="654" type="line"/>
      <point x="461" y="790" type="line"/>
      <point x="354" y="790" type="line"/>
      <point x="319" y="646" type="line"/>
      <point x="341" y="627" type="line"/>
      <point x="204" y="79" type="line"/>
      <point x="172" y="60" type="line"/>
    </contour>
  </outline>
</glyph>
<glyph name="f_f.alt" format="2">
  <advance width="805"/>
  <outline>
    <contour>
      <point x="74" y="569" type="line"/>
      <point x="53" y="485" type="line"/>
      <point x="464" y="485" type="line"/>
      <point x="484" y="569" type="line"/>
    </contour>
    <contour>
      <point x="445" y="772" type="curve" smooth="yes"/>
      <point x="274" y="772"/>
      <point x="178" y="739"/>
      <point x="153" y="587" type="curve" smooth="yes"/>
      <point x="17" y="-241" type="line"/>
      <point x="183" y="-241" type="line"/>
      <point x="377" y="602" type="line" smooth="yes"/>
      <point x="393" y="673"/>
      <point x="408" y="700"/>
      <point x="470" y="700" type="curve" smooth="yes"/>
      <point x="516" y="700"/>
      <point x="549" y="682"/>
      <point x="578" y="657" type="curve"/>
      <point x="568" y="694"/>
      <point x="566" y="713"/>
      <point x="522" y="713" type="curve"/>
      <point x="504" y="604" type="line"/>
      <point x="640" y="604" type="line"/>
      <point x="681" y="721" type="line"/>
      <point x="641" y="740"/>
      <point x="561" y="772"/>
    </contour>
    <contour>
      <point x="420" y="569" type="line"/>
      <point x="399" y="485" type="line"/>
      <point x="812" y="485" type="line"/>
      <point x="832" y="569" type="line"/>
    </contour>
    <contour>
      <point x="782" y="787" type="curve" smooth="yes"/>
      <point x="647" y="787"/>
      <point x="528" y="747"/>
      <point x="507" y="622" type="curve" smooth="yes"/>
      <point x="365" y="-241" type="line"/>
      <point x="531" y="-241" type="line"/>
      <point x="728" y="617" type="line" smooth="yes"/>
      <point x="744" y="686"/>
      <point x="759" y="715"/>
      <point x="806" y="715" type="curve" smooth="yes"/>
      <point x="831" y="715"/>
      <point x="857" y="706"/>
      <point x="879" y="692" type="curve"/>
      <point x="866" y="714"/>
      <point x="860" y="729"/>
      <point x="835" y="729" type="curve"/>
      <point x="812" y="640" type="line"/>
      <point x="948" y="640" type="line"/>
      <point x="977" y="755" type="line"/>
      <point x="943" y="769"/>
      <point x="879" y="787"/>
    </contour>
  </outline>
</glyph>
<glyph name="f_f" format="2">
  <advance width="806"/>
  <outline>
    <contour>
      <point x="75" y="569" type="line"/>
      <point x="55" y="485" type="line"/>
      <point x="454" y="485" type="line"/>
      <point x="474" y="569" type="line"/>
    </contour>
    <contour>
      <point x="183" y="-241" type="line"/>
      <point x="379" y="608" type="line" smooth="yes"/>
      <point x="393" y="667"/>
      <point x="398" y="683"/>
      <point x="427" y="683" type="curve" smooth="yes"/>
      <point x="445" y="683"/>
      <point x="458" y="678"/>
      <point x="465" y="676" type="curve"/>
      <point x="487" y="756" type="line"/>
      <point x="459" y="764"/>
      <point x="419" y="772"/>
      <point x="362" y="772" type="curve" smooth="yes"/>
      <point x="242" y="772"/>
      <point x="177" y="731"/>
      <point x="155" y="597" type="curve" smooth="yes"/>
      <point x="17" y="-241" type="line"/>
    </contour>
    <contour>
      <point x="423" y="569" type="line"/>
      <point x="403" y="485" type="line"/>
      <point x="814" y="485" type="line"/>
      <point x="835" y="569" type="line"/>
    </contour>
    <contour>
      <point x="798" y="698" type="curve" smooth="yes"/>
      <point x="829" y="698"/>
      <point x="859" y="687"/>
      <point x="870" y="682" type="curve"/>
      <point x="896" y="768" type="line"/>
      <point x="867" y="776"/>
      <point x="823" y="787"/>
      <point x="755" y="787" type="curve" smooth="yes"/>
      <point x="610" y="787"/>
      <point x="526" y="740"/>
      <point x="504" y="608" type="curve" smooth="yes"/>
      <point x="364" y="-241" type="line"/>
      <point x="530" y="-241" type="line"/>
      <point x="728" y="621" type="line" smooth="yes"/>
      <point x="741" y="676"/>
      <point x="751" y="698"/>
    </contour>
  </outline>
</glyph>
<glyph name="f_f_i.alt" format="2">
  <advance width="1050"/>
  <outline>
    <contour>
      <point x="820" y="457" type="curve" smooth="yes"/>
      <point x="767" y="247" type="line" smooth="yes"/>
      <point x="745" y="158"/>
      <point x="734" y="123"/>
      <point x="734" y="93" type="curve" smooth="yes"/>
      <point x="734" y="33"/>
      <point x="776" y="0"/>
      <point x="847" y="0" type="curve" smooth="yes"/>
      <point x="891" y="0"/>
      <point x="936" y="0"/>
      <point x="979" y="0" type="curve"/>
      <point x="1001" y="96" type="line"/>
      <point x="995" y="96"/>
      <point x="989" y="96"/>
      <point x="982" y="96" type="curve"/>
      <point x="962" y="96"/>
      <point x="952" y="103"/>
      <point x="952" y="120" type="curve" smooth="yes"/>
      <point x="952" y="134"/>
      <point x="961" y="160"/>
      <point x="984" y="251" type="curve" smooth="yes"/>
      <point x="1063" y="569" type="line"/>
      <point x="422" y="569" type="line"/>
      <point x="402" y="485" type="line"/>
      <point x="779" y="485" type="line" smooth="yes"/>
      <point x="808" y="485"/>
      <point x="824" y="471"/>
    </contour>
    <contour>
      <point x="75" y="569" type="line"/>
      <point x="55" y="485" type="line"/>
      <point x="454" y="485" type="line"/>
      <point x="474" y="569" type="line"/>
    </contour>
    <contour>
      <point x="445" y="772" type="curve" smooth="yes"/>
      <point x="274" y="772"/>
      <point x="178" y="739"/>
      <point x="153" y="587" type="curve" smooth="yes"/>
      <point x="17" y="-241" type="line"/>
      <point x="183" y="-241" type="line"/>
      <point x="377" y="602" type="line" smooth="yes"/>
      <point x="393" y="673"/>
      <point x="408" y="700"/>
      <point x="470" y="700" type="curve" smooth="yes"/>
      <point x="516" y="700"/>
      <point x="549" y="682"/>
      <point x="578" y="657" type="curve"/>
      <point x="568" y="694"/>
      <point x="566" y="713"/>
      <point x="522" y="713" type="curve"/>
      <point x="504" y="604" type="line"/>
      <point x="640" y="604" type="line"/>
      <point x="681" y="721" type="line"/>
      <point x="641" y="740"/>
      <point x="561" y="772"/>
    </contour>
    <contour>
      <point x="821" y="787" type="curve" smooth="yes"/>
      <point x="609" y="787"/>
      <point x="526" y="747"/>
      <point x="505" y="616" type="curve" smooth="yes"/>
      <point x="364" y="-241" type="line"/>
      <point x="530" y="-241" type="line"/>
      <point x="726" y="611" type="line" smooth="yes"/>
      <point x="745" y="695"/>
      <point x="758" y="715"/>
      <point x="830" y="715" type="curve" smooth="yes"/>
      <point x="874" y="715"/>
      <point x="920" y="709"/>
      <point x="958" y="685" type="curve"/>
      <point x="942" y="712"/>
      <point x="934" y="729"/>
      <point x="903" y="729" type="curve"/>
      <point x="880" y="640" type="line"/>
      <point x="1027" y="640" type="line"/>
      <point x="1055" y="753" type="line"/>
      <point x="1014" y="767"/>
      <point x="921" y="787"/>
    </contour>
  </outline>
</glyph>
<glyph name="f_f_l" format="2">
  <advance width="1083"/>
  <outline>
    <contour>
      <point x="423" y="569" type="line"/>
      <point x="403" y="485" type="line"/>
      <point x="784" y="485" type="line"/>
      <point x="805" y="569" type="line"/>
    </contour>
    <contour>
      <point x="813" y="698" type="curve" smooth="yes"/>
      <point x="871" y="698"/>
      <point x="902" y="685"/>
      <point x="916" y="679" type="curve"/>
      <point x="949" y="730" type="line"/>
      <point x="908" y="752"/>
      <point x="833" y="785"/>
      <point x="758" y="785" type="curve" smooth="yes"/>
      <point x="594" y="785"/>
      <point x="526" y="738"/>
      <point x="504" y="608" type="curve" smooth="yes"/>
      <point x="364" y="-241" type="line"/>
      <point x="530" y="-241" type="line"/>
      <point x="728" y="621" type="line" smooth="yes"/>
      <point x="741" y="676"/>
      <point x="758" y="698"/>
    </contour>
    <contour>
      <point x="990" y="251" type="curve" smooth="yes"/>
      <point x="1122" y="780" type="line"/>
      <point x="771" y="780" type="line"/>
      <point x="888" y="708" type="line"/>
      <point x="773" y="246" type="line" smooth="yes"/>
      <point x="749" y="151"/>
      <point x="742" y="120"/>
      <point x="742" y="93" type="curve" smooth="yes"/>
      <point x="742" y="33"/>
      <point x="784" y="0"/>
      <point x="855" y="0" type="curve" smooth="yes"/>
      <point x="896" y="0"/>
      <point x="939" y="0"/>
      <point x="981" y="0" type="curve"/>
      <point x="1003" y="96" type="line"/>
      <point x="998" y="96"/>
      <point x="994" y="96"/>
      <point x="990" y="96" type="curve"/>
      <point x="970" y="96"/>
      <point x="960" y="103"/>
      <point x="960" y="120" type="curve" smooth="yes"/>
      <point x="960" y="134"/>
      <point x="968" y="164"/>
    </contour>
    <contour>
      <point x="75" y="569" type="line"/>
      <point x="55" y="485" type="line"/>
      <point x="454" y="485" type="line"/>
      <point x="474" y="569" type="line"/>
    </contour>
    <contour>
      <point x="183" y="-241" type="line"/>
      <point x="379" y="608" type="line" smooth="yes"/>
      <point x="393" y="667"/>
      <point x="398" y="683"/>
      <point x="427" y="683" type="curve" smooth="yes"/>
      <point x="445" y="683"/>
      <point x="458" y="678"/>
      <point x="465" y="676" type="curve"/>
      <point x="487" y="756" type="line"/>
      <point x="459" y="764"/>
      <point x="405" y="772"/>
      <point x="362" y="772" type="curve" smooth="yes"/>
      <point x="242" y="772"/>
      <point x="177" y="731"/>
      <point x="155" y="597" type="curve" smooth="yes"/>
      <point x="17" y="-241" type="line"/>
    </contour>
  </outline>
</glyph>
<glyph name="f_h" format="2">
  <advance width="1026"/>
  <outline>
    <contour>
      <point x="76" y="569" type="line"/>
      <point x="56" y="485" type="line"/>
      <point x="437" y="485" type="line"/>
      <point x="458" y="569" type="line"/>
    </contour>
    <contour>
      <point x="466" y="698" type="curve" smooth="yes"/>
      <point x="524" y="698"/>
      <point x="555" y="685"/>
      <point x="569" y="679" type="curve"/>
      <point x="602" y="730" type="line"/>
      <point x="561" y="752"/>
      <point x="486" y="785"/>
      <point x="411" y="785" type="curve" smooth="yes"/>
      <point x="247" y="785"/>
      <point x="179" y="738"/>
      <point x="157" y="608" type="curve" smooth="yes"/>
      <point x="17" y="-241" type="line"/>
      <point x="183" y="-241" type="line"/>
      <point x="381" y="621" type="line" smooth="yes"/>
      <point x="394" y="676"/>
      <point x="411" y="698"/>
    </contour>
    <contour>
      <point x="365" y="0" type="line"/>
      <point x="579" y="0" type="line"/>
      <point x="774" y="780" type="line"/>
      <point x="425" y="780" type="line"/>
      <point x="542" y="708" type="line"/>
    </contour>
    <contour>
      <point x="952" y="251" type="curve" smooth="yes"/>
      <point x="988" y="396" type="line" smooth="yes"/>
      <point x="995" y="423"/>
      <point x="1001" y="460"/>
      <point x="1001" y="491" type="curve" smooth="yes"/>
      <point x="1001" y="546"/>
      <point x="968" y="581"/>
      <point x="903" y="581" type="curve" smooth="yes"/>
      <point x="795" y="581"/>
      <point x="716" y="509"/>
      <point x="640" y="396" type="curve"/>
      <point x="630" y="310" type="line"/>
      <point x="693" y="398"/>
      <point x="737" y="459"/>
      <point x="765" y="459" type="curve" smooth="yes"/>
      <point x="776" y="459"/>
      <point x="780" y="451"/>
      <point x="780" y="439" type="curve" smooth="yes"/>
      <point x="780" y="429"/>
      <point x="777" y="408"/>
      <point x="774" y="396" type="curve" smooth="yes"/>
      <point x="736" y="247" type="line" smooth="yes"/>
      <point x="711" y="150"/>
      <point x="704" y="120"/>
      <point x="704" y="93" type="curve" smooth="yes"/>
      <point x="704" y="33"/>
      <point x="746" y="0"/>
      <point x="817" y="0" type="curve" smooth="yes"/>
      <point x="858" y="0"/>
      <point x="902" y="0"/>
      <point x="943" y="0" type="curve"/>
      <point x="965" y="96" type="line"/>
      <point x="961" y="96"/>
      <point x="957" y="96"/>
      <point x="952" y="96" type="curve" smooth="yes"/>
      <point x="932" y="96"/>
      <point x="922" y="103"/>
      <point x="922" y="120" type="curve" smooth="yes"/>
      <point x="922" y="133"/>
      <point x="930" y="163"/>
    </contour>
  </outline>
</glyph>
<glyph name="f_k" format="2">
  <advance width="1031"/>
  <outline>
    <contour>
      <point x="76" y="569" type="line"/>
      <point x="56" y="485" type="line"/>
      <point x="437" y="485" type="line"/>
      <point x="458" y="569" type="line"/>
    </contour>
    <contour>
      <point x="466" y="698" type="curve" smooth="yes"/>
      <point x="524" y="698"/>
      <point x="555" y="685"/>
      <point x="569" y="679" type="curve"/>
      <point x="602" y="730" type="line"/>
      <point x="561" y="752"/>
      <point x="486" y="785"/>
      <point x="411" y="785" type="curve" smooth="yes"/>
      <point x="247" y="785"/>
      <point x="179" y="738"/>
      <point x="157" y="608" type="curve" smooth="yes"/>
      <point x="17" y="-241" type="line"/>
      <point x="183" y="-241" type="line"/>
      <point x="381" y="621" type="line" smooth="yes"/>
      <point x="394" y="676"/>
      <point x="411" y="698"/>
    </contour>
    <contour>
      <point x="365" y="0" type="line"/>
      <point x="579" y="0" type="line"/>
      <point x="774" y="780" type="line"/>
      <point x="425" y="780" type="line"/>
      <point x="542" y="708" type="line"/>
    </contour>
    <contour>
      <point x="900" y="118" type="line" smooth="yes"/>
      <point x="904" y="100"/>
      <point x="913" y="96"/>
      <point x="942" y="96" type="curve" smooth="yes"/>
      <point x="950" y="96"/>
      <point x="957" y="96"/>
      <point x="965" y="96" type="curve"/>
      <point x="943" y="0" type="line"/>
      <point x="889" y="0"/>
      <point x="836" y="0"/>
      <point x="782" y="0" type="curve" smooth="yes"/>
      <point x="731" y="0"/>
      <point x="717" y="11"/>
      <point x="705" y="59" type="curve"/>
      <point x="664" y="293" type="line"/>
      <point x="668" y="309" type="line"/>
      <point x="735" y="399"/>
      <point x="794" y="479"/>
      <point x="858" y="565" type="curve"/>
      <point x="1071" y="565" type="line"/>
      <point x="1071" y="550" type="line"/>
      <point x="954" y="463"/>
      <point x="861" y="402"/>
      <point x="741" y="313" type="curve"/>
      <point x="839" y="408" type="line"/>
    </contour>
  </outline>
</glyph>
<glyph name="five.oldprop" format="2">
  <advance width="528"/>
  <outline>
    <contour>
      <point x="196" y="-90" type="curve" smooth="yes"/>
      <point x="377.9148936170213" y="-90.0"/>
      <point x="481.0" y="26.0"/>
      <point x="481" y="204" type="curve" smooth="yes"/>
      <point x="481.0" y="321"/>
      <point x="424.0" y="386.0"/>
      <point x="315" y="386" type="curve" smooth="yes"/>
      <point x="224" y="386.0"/>
      <point x="179" y="346"/>
      <point x="143" y="282" type="curve"/>
      <point x="151" y="276" type="line"/>
      <point x="237" y="619" type="line"/>
      <point x="196" y="505" type="line"/>
      <point x="483" y="505" type="line"/>
      <point x="530" y="639" type="line"/>
      <point x="155" y="639" type="line"/>
      <point x="50" y="221" type="line"/>
      <point x="140" y="221" type="line"/>
      <point x="167" y="271"/>
      <point x="191" y="299.0"/>
      <point x="227" y="299" type="curve" smooth="yes"/>
      <point x="264.0" y="299.0"/>
      <point x="278.0" y="268"/>
      <point x="278" y="209" type="curve" smooth="yes"/>
      <point x="278.0" y="128"/>
      <point x="259" y="-4.0"/>
      <point x="171" y="-4" type="curve" smooth="yes"/>
      <point x="107" y="-4.0"/>
      <point x="89" y="41"/>
      <point x="73" y="101" type="curve"/>
      <point x="-25" y="75" type="line"/>
      <point x="-2.014271479623492" y="-28.935468092137242"/>
      <point x="57.875" y="-90.0"/>
    </contour>
  </outline>
</glyph>
<glyph name="fl" format="2">
  <advance width="736"/>
  <outline>
    <contour>
      <point x="76" y="569" type="line"/>
      <point x="56" y="485" type="line"/>
      <point x="437" y="485" type="line"/>
      <point x="458" y="569" type="line"/>
    </contour>
    <contour>
      <point x="466" y="698" type="curve" smooth="yes"/>
      <point x="524" y="698"/>
      <point x="555" y="685"/>
      <point x="569" y="679" type="curve"/>
      <point x="602" y="730" type="line"/>
      <point x="561" y="752"/>
      <point x="486" y="785"/>
      <point x="411" y="785" type="curve" smooth="yes"/>
      <point x="247" y="785"/>
      <point x="179" y="738"/>
      <point x="157" y="608" type="curve" smooth="yes"/>
      <point x="17" y="-241" type="line"/>
      <point x="183" y="-241" type="line"/>
      <point x="381" y="621" type="line" smooth="yes"/>
      <point x="394" y="676"/>
      <point x="411" y="698"/>
    </contour>
    <contour>
      <point x="643" y="251" type="curve" smooth="yes"/>
      <point x="775" y="780" type="line"/>
      <point x="424" y="780" type="line"/>
      <point x="541" y="708" type="line"/>
      <point x="426" y="246" type="line" smooth="yes"/>
      <point x="402" y="151"/>
      <point x="395" y="120"/>
      <point x="395" y="93" type="curve" smooth="yes"/>
      <point x="395" y="33"/>
      <point x="437" y="0"/>
      <point x="508" y="0" type="curve" smooth="yes"/>
      <point x="549" y="0"/>
      <point x="592" y="0"/>
      <point x="634" y="0" type="curve"/>
      <point x="656" y="96" type="line"/>
      <point x="651" y="96"/>
      <point x="647" y="96"/>
      <point x="643" y="96" type="curve"/>
      <point x="623" y="96"/>
      <point x="613" y="103"/>
      <point x="613" y="120" type="curve" smooth="yes"/>
      <point x="613" y="134"/>
      <point x="621" y="164"/>
    </contour>
  </outline>
</glyph>
<glyph name="manat.proportional" format="2">
  <advance width="750"/>
  <outline>
    <contour>
      <point x="454" y="767" type="line"/>
      <point x="293" y="124" type="line"/>
      <point x="381" y="124" type="line"/>
      <point x="542" y="767" type="line"/>
    </contour>
    <contour>
      <point x="437" y="525" type="curve" smooth="yes"/>
      <point x="574" y="525"/>
      <point x="549" y="458"/>
      <point x="439" y="0" type="curve"/>
      <point x="652" y="0" type="line"/>
      <point x="754" y="474"/>
      <point x="640" y="620"/>
      <point x="456" y="620" type="curve" smooth="yes"/>
      <point x="272" y="620"/>
      <point x="94" y="474"/>
      <point x="-40" y="0" type="curve"/>
      <point x="173" y="0" type="line"/>
      <point x="291" y="458"/>
      <point x="300" y="525"/>
    </contour>
  </outline>
</glyph>
<glyph name="one.midprop" format="2">
  <advance width="456"/>
  <outline>
    <contour>
      <point x="300" y="119" type="curve" smooth="yes"/>
      <point x="441" y="679" type="line"/>
      <point x="259" y="679" type="line"/>
      <point x="217" y="635"/>
      <point x="186" y="599"/>
      <point x="97" y="598" type="curve"/>
      <point x="69" y="483" type="line"/>
      <point x="144" y="482"/>
      <point x="181" y="506"/>
      <point x="228" y="606" type="curve"/>
      <point x="211" y="599" type="line"/>
      <point x="90" y="119" type="line" smooth="yes"/>
      <point x="80" y="81"/>
      <point x="59" y="73"/>
      <point x="25" y="73" type="curve" smooth="yes"/>
      <point x="-12" y="73" type="line"/>
      <point x="-30" y="0" type="line"/>
      <point x="341" y="0" type="line"/>
      <point x="359" y="73" type="line"/>
      <point x="337" y="73" type="line" smooth="yes"/>
      <point x="312" y="73"/>
      <point x="290" y="81"/>
    </contour>
  </outline>
</glyph>
<glyph name="three.linprop" format="2">
  <advance width="543"/>
  <outline>
    <contour>
      <point x="208" y="-10" type="curve" smooth="yes"/>
      <point x="403" y="-10"/>
      <point x="494" y="70"/>
      <point x="494" y="206" type="curve" smooth="yes"/>
      <point x="494" y="307"/>
      <point x="430" y="361"/>
      <point x="295" y="375" type="curve"/>
      <point x="325" y="351" type="line"/>
      <point x="334" y="389" type="line"/>
      <point x="296" y="377" type="line"/>
      <point x="460" y="383"/>
      <point x="550" y="442"/>
      <point x="550" y="573" type="curve" smooth="yes"/>
      <point x="550" y="682"/>
      <point x="474" y="735"/>
      <point x="326" y="735" type="curve" smooth="yes"/>
      <point x="240" y="735"/>
      <point x="179" y="716"/>
      <point x="137" y="701" type="curve"/>
      <point x="98" y="541" type="line"/>
      <point x="243" y="541" type="line"/>
      <point x="273" y="661" type="line"/>
      <point x="241" y="657"/>
      <point x="224" y="654"/>
      <point x="222" y="643" type="curve"/>
      <point x="242" y="649"/>
      <point x="270" y="657"/>
      <point x="295" y="657" type="curve" smooth="yes"/>
      <point x="338" y="657"/>
      <point x="355" y="638"/>
      <point x="355" y="573" type="curve" smooth="yes"/>
      <point x="355" y="498"/>
      <point x="327" y="419"/>
      <point x="246" y="419" type="curve" smooth="yes"/>
      <point x="156" y="419" type="line"/>
      <point x="133" y="330" type="line"/>
      <point x="213" y="330" type="line" smooth="yes"/>
      <point x="271" y="330"/>
      <point x="288" y="289"/>
      <point x="288" y="230" type="curve" smooth="yes"/>
      <point x="288" y="154"/>
      <point x="270" y="75"/>
      <point x="195" y="75" type="curve" smooth="yes"/>
      <point x="112" y="75"/>
      <point x="89" y="130"/>
      <point x="71" y="192" type="curve"/>
      <point x="-23" y="157" type="line"/>
      <point x="6" y="63"/>
      <point x="53" y="-10"/>
    </contour>
  </outline>
</glyph>
<glyph name="two.linprop" format="2">
  <advance width="544"/>
  <outline>
    <contour>
      <point x="-43" y="0" type="line"/>
      <point x="3" y="183" type="line"/>
      <point x="260" y="306"/>
      <point x="339" y="388"/>
      <point x="339" y="563" type="curve" smooth="yes"/>
      <point x="339" y="629"/>
      <point x="326" y="652"/>
      <point x="283" y="652" type="curve" smooth="yes"/>
      <point x="253" y="652"/>
      <point x="224" y="642"/>
      <point x="208" y="629" type="curve"/>
      <point x="198" y="649"/>
      <point x="223" y="652"/>
      <point x="260" y="656" type="curve"/>
      <point x="224" y="511" type="line"/>
      <point x="69" y="511" type="line"/>
      <point x="111" y="681" type="line"/>
      <point x="148" y="701"/>
      <point x="214" y="735"/>
      <point x="310" y="735" type="curve" smooth="yes"/>
      <point x="462" y="735"/>
      <point x="539" y="675"/>
      <point x="539" y="544" type="curve" smooth="yes"/>
      <point x="539" y="320"/>
      <point x="330" y="252"/>
      <point x="3" y="116" type="curve"/>
      <point x="34" y="132" type="line"/>
      <point x="286" y="132" type="line" smooth="yes"/>
      <point x="353" y="132"/>
      <point x="377" y="136"/>
      <point x="390" y="171" type="curve" smooth="yes"/>
      <point x="413" y="234" type="line"/>
      <point x="497" y="234" type="line"/>
      <point x="442" y="0" type="line"/>
    </contour>
  </outline>
</glyph>
<glyph name="two.midprop" format="2">
  <advance width="511"/>
  <outline>
    <contour>
      <point x="-62" y="0" type="line"/>
      <point x="-22" y="160" type="line"/>
      <point x="279" y="284"/>
      <point x="322" y="421"/>
      <point x="322" y="531" type="curve" smooth="yes"/>
      <point x="322" y="582"/>
      <point x="307" y="610"/>
      <point x="269" y="610" type="curve" smooth="yes"/>
      <point x="237" y="610"/>
      <point x="195" y="591"/>
      <point x="174" y="577" type="curve"/>
      <point x="164" y="592"/>
      <point x="200" y="611"/>
      <point x="240" y="614" type="curve"/>
      <point x="203" y="466" type="line"/>
      <point x="48" y="466" type="line"/>
      <point x="92" y="645" type="line"/>
      <point x="129" y="660"/>
      <point x="201" y="693"/>
      <point x="294" y="693" type="curve"/>
      <point x="448" y="693"/>
      <point x="522" y="634"/>
      <point x="522" y="519" type="curve" smooth="yes"/>
      <point x="522" y="309"/>
      <point x="361" y="243"/>
      <point x="22" y="116" type="curve"/>
      <point x="16" y="132" type="line"/>
      <point x="250" y="132" type="line" smooth="yes"/>
      <point x="326" y="132"/>
      <point x="354" y="135"/>
      <point x="369" y="174" type="curve" smooth="yes"/>
      <point x="392" y="234" type="line"/>
      <point x="478" y="234" type="line"/>
      <point x="422" y="0" type="line"/>
    </contour>
  </outline>
</glyph>
<glyph name="two.oldprop" format="2">
  <advance width="501"/>
  <outline>
    <contour>
      <point x="451" y="147" type="line"/>
      <point x="27" y="147" type="line"/>
      <point x="22" y="139" type="line"/>
      <point x="320" y="232"/>
      <point x="502" y="261"/>
      <point x="502" y="474" type="curve" smooth="yes"/>
      <point x="502" y="594"/>
      <point x="423" y="649"/>
      <point x="276" y="649" type="curve" smooth="yes"/>
      <point x="186" y="649"/>
      <point x="117" y="614"/>
      <point x="78" y="592" type="curve"/>
      <point x="36" y="425" type="line"/>
      <point x="192" y="425" type="line"/>
      <point x="228" y="570" type="line"/>
      <point x="184" y="567"/>
      <point x="150" y="553"/>
      <point x="163" y="540" type="curve"/>
      <point x="174" y="545"/>
      <point x="208" y="566"/>
      <point x="247" y="566" type="curve" smooth="yes"/>
      <point x="277" y="566"/>
      <point x="291" y="553"/>
      <point x="291" y="494" type="curve" smooth="yes"/>
      <point x="291" y="354"/>
      <point x="248" y="268"/>
      <point x="-2" y="191" type="curve"/>
      <point x="-50" y="0" type="line"/>
      <point x="414" y="0" type="line"/>
    </contour>
  </outline>
</glyph>
<glyph name="uni20B8.proportional" format="2">
  <advance width="637"/>
  <outline>
    <contour>
      <point x="164" y="121" type="line" smooth="yes"/>
      <point x="157" y="92"/>
      <point x="141" y="85"/>
      <point x="121" y="85" type="curve" smooth="yes"/>
      <point x="103" y="85" type="line"/>
      <point x="82" y="0" type="line"/>
      <point x="371" y="0" type="line"/>
      <point x="392" y="85" type="line"/>
      <point x="373" y="85" type="line" smooth="yes"/>
      <point x="358" y="85"/>
      <point x="342" y="93"/>
      <point x="349" y="121" type="curve" smooth="yes"/>
      <point x="434" y="465" type="line"/>
      <point x="441" y="465" type="line" smooth="yes"/>
      <point x="500" y="465"/>
      <point x="501" y="446"/>
      <point x="495" y="406" type="curve" smooth="yes"/>
      <point x="477" y="295" type="line"/>
      <point x="570" y="295" type="line"/>
      <point x="633" y="546" type="line"/>
      <point x="91" y="546" type="line"/>
      <point x="28" y="295" type="line"/>
      <point x="121" y="295" type="line"/>
      <point x="161" y="406" type="line" smooth="yes"/>
      <point x="175" y="446"/>
      <point x="186" y="465"/>
      <point x="244" y="465" type="curve" smooth="yes"/>
      <point x="249" y="465" type="line"/>
    </contour>
    <contour>
      <point x="138" y="750" type="line"/>
      <point x="117" y="664" type="line"/>
      <point x="665" y="664" type="line"/>
      <point x="686" y="750" type="line"/>
    </contour>
  </outline>
</glyph>
<glyph name="zero.slashlinprop" format="2">
  <advance width="582"/>
  <outline>
    <contour>
      <point x="228" y="-11" type="curve" smooth="yes"/>
      <point x="468" y="-11"/>
      <point x="565" y="305"/>
      <point x="565" y="518" type="curve" smooth="yes"/>
      <point x="565" y="644"/>
      <point x="495" y="735"/>
      <point x="354" y="735" type="curve" smooth="yes"/>
      <point x="115" y="735"/>
      <point x="17" y="419"/>
      <point x="17" y="206" type="curve" smooth="yes"/>
      <point x="17" y="80"/>
      <point x="86" y="-11"/>
    </contour>
    <contour>
      <point x="230" y="73" type="curve" smooth="yes"/>
      <point x="199" y="73"/>
      <point x="192" y="88"/>
      <point x="192" y="122" type="curve" smooth="yes"/>
      <point x="192" y="161"/>
      <point x="205" y="242"/>
      <point x="237" y="380" type="curve"/>
      <point x="292" y="614"/>
      <point x="314" y="651"/>
      <point x="352" y="651" type="curve" smooth="yes"/>
      <point x="384" y="651"/>
      <point x="390" y="636"/>
      <point x="390" y="602" type="curve" smooth="yes"/>
      <point x="390" y="563"/>
      <point x="377" y="482"/>
      <point x="345" y="344" type="curve"/>
      <point x="290" y="110"/>
      <point x="269" y="73"/>
    </contour>
    <contour>
      <point x="99" y="152" type="line"/>
      <point x="495" y="488" type="line"/>
      <point x="487" y="572" type="line"/>
      <point x="88" y="233" type="line"/>
    </contour>
  </outline>
</glyph>
